<svg xmlns="http://www.w3.org/2000/svg" xmlns:xlink="http://www.w3.org/1999/xlink" width="32" height="32" id="link"><defs><linearGradient id="a"><stop offset="0" stop-color="#000092"></stop><stop offset="1" stop-color="#ff00f3"></stop></linearGradient><linearGradient id="b" x1="-.003" x2="29" y1="15.781" y2="15.781" gradientUnits="userSpaceOnUse" xlink:href="#a"></linearGradient></defs><path style="text-indent:0;text-align:start;line-height:normal;text-transform:none;block-progression:tb;marker:none;-inkscape-font-specification:Sans" fill="url(#b)" d="M15.5 3v2.25h1V3zm-4.406.969-.875.437.937 2.032.906-.407zm15.406.219a5.187 5.187 0 0 0-2.5.718l-5.844 3.375c-1.815 1.057-2.746 3.025-2.625 5l-1.437.813A5.362 5.362 0 0 0 11 13.219c-.865.042-1.864.338-2.531.719l-5.813 3.374C.1 18.8-.757 22.08.72 24.657A5.297 5.297 0 0 0 8 26.625l5.844-3.375c1.805-1.05 2.734-3.004 2.625-4.969l1.437-.812a5.346 5.346 0 0 0 5.625.156l5.813-3.375c2.557-1.488 3.413-4.798 1.937-7.375A5.34 5.34 0 0 0 26.5 4.187zm.031 1a4.359 4.359 0 0 1 3.907 2.187 4.397 4.397 0 0 1-1.594 6L23 16.75c-1.272.74-2.675.596-3.906.031L20.437 16c.674.092 1.39.03 2.032-.344l5.656-3.344c.01-.007.021-.025.031-.03 1.487-.887 2.042-2.79 1.188-4.282-.86-1.501-2.804-1.972-4.313-1.094l-5.687 3.313c-.647.376-1.087.953-1.344 1.594l-.844.5-.468.28c.121-1.368.719-2.691 2-3.437l5.78-3.375a4.326 4.326 0 0 1 2.063-.593zM7.125 6.655l-.688.719 1.625 1.563.688-.75zm19.656.813A2.074 2.074 0 0 1 28.5 8.5c.586 1.023.214 2.322-.844 2.938l-5.562 3.28c.52-.755.631-1.732.156-2.562a2.437 2.437 0 0 0-2.156-1.219l5.437-3.156c.397-.23.833-.332 1.25-.312zm-22.906 4.5-.25.969 2.156.593.282-.969zm16.063 0c.188-.025.381-.013.562.031.362.087.681.286.875.625.388.678.149 1.568-.594 2l-.656.406s-3.092 1.786-4.406 2.531l-2.344 1.375c-.195.17-.456.28-.688.407-.742.432-1.611.208-2-.469-.388-.677-.148-1.568.594-2 .197-.18.472-.259.688-.375l1.531-.906.813-.5a.498.498 0 0 0 .093-.063l1.75-1 .125-.062 2.344-1.344a.498.498 0 0 0 .125-.094l.625-.375c.186-.108.374-.162.563-.187zm-8.907 2.25c.692-.019 1.38.199 2 .5l-.187.094-1.25.75c-.68-.097-1.416-.001-2.063.374L3.875 19.25c-1.51.878-2.079 2.78-1.219 4.281.86 1.501 2.803 2.004 4.313 1.125l5.687-3.312c.638-.371 1.085-.963 1.344-1.594.004-.009-.004-.022 0-.031l.625-.344.719-.406c-.121 1.37-.75 2.66-2.031 3.406L7.53 25.781c-2.094 1.219-4.76.486-5.968-1.625a4.36 4.36 0 0 1 1.593-5.968L9 14.813a4.21 4.21 0 0 1 2.031-.594zm-1.094 2.625c-.497.752-.594 1.71-.124 2.531.46.803 1.338 1.231 2.218 1.188L6.47 23.78c-1.058.616-2.383.273-2.969-.75-.586-1.022-.214-2.322.844-2.937zM26.22 18.03l-.282.938 2.188.593.25-.968zm-2.282 4.594-.687.75 1.625 1.531.688-.75zm-3.093 2.5-.907.406.97 2.032.874-.407zM15.5 26.313v2.25h1v-2.25z" color="#000" font-family="Sans" font-weight="400" overflow="visible"></path></svg>