<svg xmlns="http://www.w3.org/2000/svg" enable-background="new 0 0 50 50" viewBox="0 0 50 50" id="website"><path fill="#ffe8b6" d="M35.13595,9.02473c-2.12722,0.61511-4.15563,1.53863-6.28427,2.14883c-4.16892,1.19507-8.57782,1.15316-12.87744,1.72004c-4.29962,0.56688-8.76976,1.90493-11.62934,5.16543c-3.71587,4.23684-3.67724,10.93954-0.83134,15.80364s7.99683,8.03303,13.39457,9.65259c4.46204,1.33881,9.24874,1.73829,13.80972,0.78979c4.56098-0.94849,8.87875-3.29275,11.89103-6.84638c2.10488-2.48316,3.52691-5.47053,4.70493-8.50515c1.50328-3.8725,2.65978-8.06466,1.91206-12.15086C47.93071,9.7248,41.59037,7.15835,35.13595,9.02473z"></path><circle cx="3.29" cy="5.169" r=".96" fill="#ff5892"></circle><path fill="#06d506" d="M45.66053,5.16911c0-0.53024,0.42928-0.95952,0.95952-0.95952s0.95952,0.42928,0.95952,0.95952s-0.42929,0.95952-0.95952,0.95952S45.66053,5.69934,45.66053,5.16911"></path><circle cx="7.34" cy="46.317" r=".96" fill="#ff5f4a"></circle><path fill="#fdcb4d" d="M44.55135,19.45628v11.08751c0,1.26657-1.02676,2.29332-2.29332,2.29332H9.07693c-1.26657,0-2.29332-1.02676-2.29332-2.29332V19.45628c0-1.26657,1.02676-2.29332,2.29332-2.29332h33.18109C43.52459,17.16295,44.55135,18.18971,44.55135,19.45628z"></path><path fill="#2e3f68" d="M25,0.5C11.27734,0.5,0.5,11.64932,0.5,25c0,13.437,10.87361,24.5,24.5,24.5c13.67401,0,24.5-11.0876,24.5-24.5C49.5,11.5235,38.6006,0.5,25,0.5z M48.47998,24.5h-3.37v-5.03998c0-1.67999-1.37-3.04999-3.04999-3.04999h-4.20001c-0.27002-1.26001-0.59003-2.47003-0.97003-3.63c1.87-1.04999,3.62-2.34003,5.19-3.88C46.09998,13.16003,48.34998,18.66003,48.47998,24.5z M41.38995,8.18005c-1.45996,1.43994-3.08997,2.62994-4.82001,3.62c-1.63-4.51001-4.06-8-6.92999-9.84003C34.06,2.83002,38.12,4.97003,41.38995,8.18005z M25.5,1.52002c4.27997,0.31,8.00995,4.53003,10.19995,10.77002c-3.13,1.59998-6.58997,2.46997-10.19995,2.54999V1.52002z M25.5,15.85004C29.21997,15.77002,32.77997,14.88,36.00995,13.25c0.32001,1.01001,0.59003,2.07001,0.83002,3.16003H25.5V15.85004z M14.31,12.29004C16.48999,6.05005,20.21997,1.83002,24.5,1.52002v13.32001C20.88995,14.76001,17.42999,13.89001,14.31,12.29004z M24.5,15.85004v0.56H13.15997c0.23999-1.09003,0.52002-2.15002,0.83002-3.16003C17.20996,14.88,20.77997,15.77002,24.5,15.85004z M20.35999,1.95001c-2.87,1.85004-5.29999,5.34003-6.92004,9.85004c-1.73999-0.99005-3.37-2.18005-4.82996-3.62C11.87994,4.97003,15.93994,2.83002,20.35999,1.95001z M7.91998,8.90002c1.57001,1.53998,3.32001,2.83002,5.19,3.88c-0.38,1.15997-0.70001,2.37-0.97003,3.63H8.87994c-1.67999,0-3.03998,1.37-3.03998,3.04999V24.5H1.51996C1.64996,18.65002,3.89996,13.15002,7.91998,8.90002z M1.51996,25.5h4.32001v5.04004c0,1.67999,1.35999,3.04999,3.03998,3.04999h3.26001c0.27002,1.26001,0.59003,2.47998,0.97003,3.63c-1.88,1.04999-3.63,2.34998-5.20001,3.89001C3.88995,36.85004,1.64996,31.34003,1.51996,25.5z M8.59998,41.82001c1.46002-1.42999,3.09998-2.63,4.83997-3.62c1.62006,4.5,4.04004,8,6.91003,9.84003C15.92999,47.16003,11.87994,45.03003,8.59998,41.82001z M24.5,48.48004c-4.28003-0.31-8.01001-4.54004-10.19-10.77002c3.12-1.59998,6.57996-2.46997,10.19-2.54999V48.48004z M24.5,34.15002C20.77997,34.23004,17.20996,35.12,13.98999,36.75c-0.32001-1.00995-0.60004-2.06995-0.83002-3.15997H24.5V34.15002z M8.87994,32.09003c-0.84998,0-1.53998-0.70001-1.53998-1.54999V19.46002c0-0.84998,0.69-1.54999,1.53998-1.54999H42.06c0.84998,0,1.54999,0.70001,1.54999,1.54999v11.08002c0,0.84998-0.70001,1.54999-1.54999,1.54999H8.87994z M36.83997,33.59003c-0.22998,1.09003-0.51001,2.15002-0.83002,3.15997c-3.21997-1.63-6.78998-2.51996-10.50995-2.59998v-0.56H36.83997z M25.5,48.48004V35.16003c3.60999,0.08002,7.07996,0.95001,10.19995,2.54999c-2.19,6.22998-5.91998,10.46002-10.19,10.77002C25.5,48.48004,25.5,48.48004,25.5,48.48004z M29.64996,48.04004c2.87-1.85004,5.28998-5.34003,6.91003-9.84003c1.73999,0.98999,3.37,2.17999,4.83997,3.62C38.12,45.03003,34.06995,47.16003,29.64996,48.04004z M42.08997,41.10004c-1.58002-1.54004-3.32001-2.83002-5.19-3.88c0.37-1.15002,0.69-2.37,0.96002-3.63H42.06c1.67999,0,3.04999-1.37,3.04999-3.04999V25.5h3.37C48.34998,31.34003,46.10999,36.85004,42.08997,41.10004z"></path><path fill="#2e3f68" d="M18.55884 22.47461c-.37842-.1748-.82178-.00684-.99414.36914l-1.24658 2.7207-1.24561-2.7207c-.12256-.2666-.38867-.4375-.68213-.4375s-.55957.1709-.68164.4375l-1.24658 2.7207-1.24561-2.7207c-.17236-.37598-.61768-.54297-.99414-.36914-.37695.17188-.54248.61719-.37012.99414l1.92773 4.20996c.12256.2666.38867.4375.68213.4375s.55957-.1709.68164-.4375l1.24658-2.7207 1.24561 2.7207c.12256.2666.38867.4375.68213.4375s.55957-.1709.68213-.4375l1.92773-4.20996C19.10083 23.0918 18.9353 22.64648 18.55884 22.47461zM29.43335 22.47461c-.37695-.1748-.82227-.00684-.99414.36914l-1.24658 2.7207-1.24561-2.7207c-.12256-.2666-.38867-.4375-.68213-.4375s-.55957.1709-.68164.4375l-1.24658 2.7207-1.24561-2.7207c-.17285-.37598-.6167-.54297-.99414-.36914-.37695.17188-.54248.61719-.37012.99414l1.92773 4.20996c.12256.2666.38867.4375.68213.4375s.55957-.1709.68164-.4375l1.24658-2.7207 1.24561 2.7207c.12256.2666.38867.4375.68213.4375s.55957-.1709.68213-.4375l1.92773-4.20996C29.97534 23.0918 29.80981 22.64648 29.43335 22.47461zM40.30737 22.47461c-.37549-.1748-.82129-.00684-.99414.36914l-1.24561 2.7207-1.24658-2.7207c-.24414-.5332-1.11914-.5332-1.36328 0l-1.24658 2.7207-1.24561-2.7207c-.17285-.37598-.61768-.54297-.99414-.36914-.37695.17188-.54248.61719-.37012.99414l1.92773 4.20996c.12256.2666.38867.4375.68213.4375s.55957-.1709.68164-.4375l1.24658-2.72168 1.24658 2.72168c.12207.2666.38818.4375.68164.4375s.55957-.1709.68213-.4375l1.92773-4.20996C40.84985 23.0918 40.68433 22.64648 40.30737 22.47461z"></path></svg>